<?xml version="1.0" encoding="UTF-8" standalone="no"?>
<svg
   xmlns:dc="http://purl.org/dc/elements/1.1/"
   xmlns:cc="http://creativecommons.org/ns#"
   xmlns:rdf="http://www.w3.org/1999/02/22-rdf-syntax-ns#"
   xmlns:svg="http://www.w3.org/2000/svg"
   xmlns="http://www.w3.org/2000/svg"
   xmlns:sodipodi="http://sodipodi.sourceforge.net/DTD/sodipodi-0.dtd"
   xmlns:inkscape="http://www.inkscape.org/namespaces/inkscape"
   inkscape:version="1.0beta1 (32d4812, 2019-09-19)"
   sodipodi:docname="twitter.svg"
   version="1.1"
   viewBox="0 0 400 400"
   data-name="Logo — FIXED"
   id="Logo_FIXED">
  <metadata
     id="metadata23">
    <rdf:RDF>
      <cc:Work
         rdf:about="">
        <dc:format>image/svg+xml</dc:format>
        <dc:type
           rdf:resource="http://purl.org/dc/dcmitype/StillImage" />
      </cc:Work>
    </rdf:RDF>
  </metadata>
  <sodipodi:namedview
     inkscape:current-layer="Logo_FIXED"
     inkscape:window-maximized="0"
     inkscape:window-y="23"
     inkscape:window-x="0"
     inkscape:cy="352.09734"
     inkscape:cx="247.08254"
     inkscape:zoom="0.62363575"
     showgrid="false"
     id="namedview21"
     inkscape:window-height="907"
     inkscape:window-width="1600"
     inkscape:pageshadow="2"
     inkscape:pageopacity="0"
     guidetolerance="10"
     gridtolerance="10"
     objecttolerance="10"
     borderopacity="1"
     inkscape:document-rotation="0"
     bordercolor="#666666"
     pagecolor="#ffffff" />
  <defs
     id="defs12">
    <style
       id="style10">.cls-1{fill:none;}.cls-2{fill:#1da1f2;}</style>
  </defs>
  <title
     id="title14">Twitter_Logo_Blue</title>
  <rect
     id="rect16"
     height="400"
     width="400"
     class="cls-1" />
  <path
     style="stroke-width:1.55802"
     inkscape:connector-curvature="0"
     id="path18"
     d="m 128.54087,358.91878 c 146.98342,0 227.37716,-121.77468 227.37716,-227.37716 0,-3.4588 0,-6.90201 -0.2337,-10.32965 A 162.59476,162.59476 0 0 0 395.55401,79.846594 159.50989,159.50989 0 0 1 349.65479,92.419795 80.191189,80.191189 0 0 0 384.7881,48.218822 160.14867,160.14867 0 0 1 334.04346,67.616147 79.988645,79.988645 0 0 0 197.85709,140.50024 226.87859,226.87859 0 0 1 33.159009,57.006045 79.973065,79.973065 0 0 0 57.900336,163.68354 79.318699,79.318699 0 0 1 21.629675,153.68106 c 0,0.32719 0,0.66996 0,1.01271 a 79.941905,79.941905 0 0 0 64.112443,78.33716 79.786103,79.786103 0 0 1 -36.083694,1.37105 80.004227,80.004227 0 0 0 74.660226,55.4966 160.35121,160.35121 0 0 1 -99.245754,34.27639 162.67266,162.67266 0 0 1 -19.023401,-1.15293 226.2398,226.2398 0 0 0 122.491375,35.83442"
     class="cls-2" />
</svg>
